<svg width="39" height="26" viewBox="0 0 39 26" fill="none" xmlns="http://www.w3.org/2000/svg">
<path d="M10.7063 4.38208H6.66434C4.87833 4.46782 3.41845 5.19816 2.99693 6.70424C2.77713 7.48969 2.65617 8.35233 2.4843 9.16654C1.61054 13.3065 0.83578 17.5607 0 21.618H31.4681C33.9009 21.618 35.5714 21.0961 36.0227 19.1356C36.2324 18.2249 36.4333 17.1935 36.6339 16.193C37.416 12.2919 38.1988 8.39111 39 4.38208H10.7063Z" fill="#9E9E9E"/>
<path d="M10.4564 10.3945C10.6262 10.2709 10.8448 9.70823 10.595 9.47397C10.5159 9.39981 10.3836 9.37828 10.199 9.41126C10.0278 9.4418 9.92927 9.50329 9.86238 9.59955C9.75489 9.75429 9.65625 10.2211 9.82278 10.3945C9.98501 10.5633 10.3484 10.473 10.4564 10.3945ZM8.04064 9.47397C7.91901 10.3078 7.782 11.1254 7.64461 11.9425C6.76249 11.9524 5.86185 11.9885 5.01104 11.9216C5.17173 11.1221 5.28698 10.2746 5.44667 9.47397H4.49621C4.15599 11.5133 3.84645 13.5852 3.46655 15.5826H4.43685C4.58901 14.5581 4.7314 13.523 4.93184 12.5492C5.75913 12.5277 6.75065 12.4902 7.54565 12.5702C7.38173 13.5825 7.18367 14.5586 7.03083 15.5826H8.00112C8.31297 13.5132 8.64135 11.4614 9.03086 9.47397H8.04064ZM21.763 11.2313C21.0081 10.9091 20.4145 11.4535 20.1393 11.9635C20.2018 11.7366 20.2274 11.4709 20.278 11.2313H19.5255C19.3416 12.7385 19.0705 14.1535 18.8127 15.5826H19.6642C19.7836 14.7344 19.8351 13.5908 20.0998 12.7793C20.3114 12.1309 20.8651 11.5785 21.6641 11.8798C21.6752 11.6406 21.74 11.458 21.763 11.2313ZM22.2382 14.5576C22.1597 14.3433 22.1394 13.9897 22.159 13.7207C22.203 13.1163 22.4115 12.3803 22.7333 12.0471C23.1773 11.5873 24.0539 11.6634 24.7531 11.9216C24.7747 11.6727 24.8221 11.4506 24.8521 11.2104C23.7054 11.0125 22.6174 11.1357 22.0404 11.7753C21.4755 12.4014 21.1054 13.8404 21.367 14.7459C21.6733 15.8055 23.047 15.863 24.1591 15.4572C24.2083 15.2442 24.2343 15.0068 24.2779 14.7878C23.6701 15.1213 22.5083 15.2946 22.2382 14.5576ZM31.8023 11.2522C31.0497 10.8546 30.4232 11.5217 30.1786 11.9216C30.2483 11.7164 30.2523 11.4416 30.3172 11.2312H29.5648C29.3619 12.7253 29.1174 14.1754 28.8322 15.5826H29.7035C29.7089 15.0058 29.8162 14.5792 29.9014 14.0137C30.0834 12.806 30.3508 11.4816 31.6837 11.8797C31.7277 11.6755 31.7461 11.4439 31.8023 11.2522ZM9.58513 11.2313C9.56206 11.2348 9.5636 11.2643 9.56529 11.294C9.37769 12.7763 9.12373 14.1888 8.85248 15.5826H9.70392C9.90851 14.0902 10.1429 12.6295 10.4366 11.2312L9.58513 11.2313ZM17.07 11.1476C16.4548 11.1977 15.9347 11.3847 15.5652 11.7961C15.1118 12.3007 14.7448 13.4162 14.8523 14.4321C15.0058 15.8814 16.7138 15.8293 18.0799 15.4781C18.1032 15.2237 18.1615 15.0062 18.1987 14.7668C17.636 14.9893 16.6589 15.2998 16.0799 14.9133C15.6429 14.6213 15.6403 13.8822 15.7829 13.2397C16.7011 13.2088 17.6554 13.2147 18.5748 13.2397C18.6331 12.7843 18.8 12.2878 18.654 11.8381C18.4615 11.2443 17.7719 11.0904 17.07 11.1476ZM17.8819 12.7375H15.8818C15.9452 12.2518 16.3588 11.7178 17.0106 11.6915C17.624 11.6668 18.0632 11.9294 17.8819 12.7375ZM13.8424 11.2313C13.1218 10.9453 12.2435 11.2867 11.8627 11.6114C11.8641 11.6257 11.8536 11.6277 11.8424 11.6287C11.8489 11.623 11.856 11.6172 11.8627 11.6114C11.8627 11.6102 11.8625 11.609 11.8623 11.6079C11.8687 11.4682 11.9152 11.3709 11.9217 11.2313H11.189C10.8837 13.3773 10.5217 15.4632 10.1396 17.5282H10.9911C11.1143 16.724 11.1957 15.8756 11.3673 15.1224C11.5618 15.9145 12.8315 15.7632 13.3673 15.4571C14.4727 14.8255 15.3253 11.8197 13.8424 11.2313ZM13.1692 14.7668C12.7137 15.2765 11.5938 15.2689 11.5059 14.4111C11.4677 14.0379 11.5992 13.6466 11.6644 13.2605C11.7302 12.8698 11.7776 12.4948 11.8425 12.1518C12.2912 11.5729 13.6097 11.503 13.7435 12.4656C13.8595 13.3012 13.5464 14.3446 13.1692 14.7668ZM34.9704 9.34847C34.8975 10.0245 34.7999 10.6745 34.6735 11.294C32.5849 10.5955 31.3041 12.219 31.3271 14.2229C31.3317 14.6104 31.3948 14.9947 31.6241 15.2689C32.0196 15.7411 33.1515 15.8543 33.7231 15.4571C33.8337 15.3802 33.9468 15.2403 34.0201 15.1434C34.0752 15.0703 34.1626 14.879 34.1785 14.9341C34.1484 15.1464 34.1035 15.3431 34.0994 15.5826H34.8716C35.0206 13.327 35.4807 11.4005 35.8221 9.34839H34.9705V9.34847H34.9704ZM33.0696 15.1014C32.4964 15.1144 32.2114 14.7396 32.1982 14.1182C32.1754 13.0299 32.6273 11.8208 33.5448 11.7124C33.972 11.662 34.2813 11.7669 34.5943 11.8798C34.3069 13.1023 34.4106 15.0711 33.0696 15.1014ZM25.7232 11.2313C25.6813 11.4798 25.617 11.7048 25.5648 11.9425C26.0673 11.8094 27.6318 11.4013 27.7826 12.1099C27.8327 12.3453 27.7463 12.5954 27.6836 12.7793C26.2689 12.6378 25.1158 12.8861 24.8124 13.9508C24.6092 14.664 24.8351 15.3658 25.2678 15.5618C26.1012 15.939 27.1149 15.5069 27.4658 14.9133C27.4293 15.1187 27.3948 15.3264 27.4065 15.5826H28.1391C28.1469 14.8413 28.249 14.2413 28.3569 13.5743C28.4488 13.0062 28.6219 12.4439 28.5945 11.9425C28.5315 10.7943 26.7311 11.2005 25.7232 11.2313ZM27.1093 14.7458C26.6705 15.1996 25.4388 15.3286 25.5648 14.2437C25.6694 13.3428 26.598 13.1513 27.6042 13.2813C27.5295 13.7742 27.4437 14.4 27.1093 14.7458Z" fill="white"/>
</svg>
